HIERARCHY
ROOT Hip
{
	OFFSET 0 0 0
	CHANNELS 6 Xposition Yposition Zposition Zrotation Yrotation Xrotation
	JOINT ShoulderCenter
	{
		OFFSET 0 0.4363 0
		CHANNELS 3 Zrotation Yrotation Xrotation
		JOINT Head
		{
			OFFSET 0 0.1849 0
			CHANNELS 3 Zrotation Yrotation Xrotation
			End Site
			{
				OFFSET 0.0 0.0891 0.0
			}
		}
		JOINT ShoulderLeft
		{
			OFFSET -0.14 0 0
			CHANNELS 3 Zrotation Yrotation Xrotation
			JOINT ElbowLeft
			{
				OFFSET -0.25 0 0
				CHANNELS 3 Zrotation Yrotation Xrotation
				JOINT WristLeft
				{
					OFFSET -0.23 0 0
					CHANNELS 3 Zrotation Yrotation Xrotation
					End Site
					{
						OFFSET -0.0832 0.0 0.0
					}
				}
			}
		}
		JOINT ShoulderRight
		{
			OFFSET 0.14 0 0
			CHANNELS 3 Zrotation Yrotation Xrotation
			JOINT ElbowRight
			{
				OFFSET 0.25 0 0
				CHANNELS 3 Zrotation Yrotation Xrotation
				JOINT WristRight
				{
					OFFSET 0.23 0 0
					CHANNELS 3 Zrotation Yrotation Xrotation
					End Site
					{
						OFFSET 0.0832 0.0 0.0
					}
				}
			}
		}
	}
	JOINT HipLeft
	{
		OFFSET -0.0952 0 0
		CHANNELS 3 Zrotation Yrotation Xrotation
		JOINT KneeLeft
		{
			OFFSET 0 -0.3732 0
			CHANNELS 3 Zrotation Yrotation Xrotation
			JOINT AnkleLeft
			{
				OFFSET 0 -0.346 0
				CHANNELS 3 Zrotation Yrotation Xrotation
				End Site
				{
					OFFSET 0.0 0.0 0.0891
				}
			}
		}
	}
	JOINT HipRight
	{
		OFFSET 0.0952 0 0
		CHANNELS 3 Zrotation Yrotation Xrotation
		JOINT KneeRight
		{
			OFFSET 0 -0.3732 0
			CHANNELS 3 Zrotation Yrotation Xrotation
			JOINT AnkleRight
			{
				OFFSET 0 -0.346 0
				CHANNELS 3 Zrotation Yrotation Xrotation
				End Site
				{
					OFFSET 0.0 0.0 0.0891
				}
			}
		}
	}
}
MOTION
Frames: 35
Frame Time: 0.033333
0.000160338 -3.39231e-005 -0.00240353 0.502317 -1.05167 -8.11459 -1.0857 0.477436 -3.82783 1.12149e-008 1.34005e-008 1.39671e-007 0 0 0 0 0 0 0 0 0 0 0 0 0 0 0 0 0 0 -6.5172 -1.46903 -1.40617 8.43979 0.994843 -15.2525 0 0 0 2.01722 0.608909 2.56429 -4.49232 -0.101705 -19.1141 8.23207e-008 -2.22771e-009 2.08433e-007 
0.000159603 -3.38572e-005 -0.00240378 0.505446 -0.878253 -8.10528 -1.13689 0.237752 -3.78979 0 0 0 0 0 0 0 0 0 0 0 0 0 0 0 0 0 0 0 0 0 -6.46726 -1.43667 -1.38932 8.28174 0.96255 -15.2858 -8.24344e-008 3.8368e-008 1.89417e-007 2.05955 0.626371 2.51776 -4.57076 -0.120897 -19.1025 8.07657e-008 -1.17285e-008 2.06517e-007 
0.00015878 -3.38419e-005 -0.00240427 0.493659 -0.550353 -8.03625 -1.14459 -0.105817 -3.8509 1.09585e-008 8.34595e-009 1.42408e-007 0 0 0 0 0 0 0 0 0 0 0 0 0 0 0 0 0 0 -6.49169 -1.43827 -1.4054 8.24208 0.945885 -15.3965 0 0 0 2.14047 0.666851 2.29401 -4.73959 -0.155533 -18.9617 0 0 0 
0.000158605 -3.38174e-005 -0.00240427 0.550839 -0.527831 -8.03665 -1.21961 -0.128711 -3.76621 0 0 0 0 0 0 0 0 0 0 0 0 0 0 0 0 0 0 0 0 0 -6.56692 -1.44514 -1.40771 8.27724 0.947072 -15.3832 -7.68525e-008 5.70773e-008 1.87372e-007 2.08504 0.665339 2.29695 -4.70546 -0.146051 -19.0877 7.93595e-008 -2.39988e-008 1.97288e-007 
0.00015834 -3.37601e-005 -0.00240427 0.539815 -0.491315 -8.02679 -1.15365 -0.160952 -3.75152 0 0 0 0 0 0 0 0 0 0 0 0 0 0 0 0 0 0 0 0 0 -6.53989 -1.44268 -1.41204 8.25985 0.94392 -15.3951 0 0 0 2.11893 0.669852 2.28191 -4.70231 -0.140958 -19.2006 0 0 0 
0.000158175 -3.37436e-005 -0.00240424 0.542698 -0.466626 -8.00085 -1.15747 -0.177867 -3.7368 0 0 0 0 0 0 0 0 0 0 0 0 0 0 0 0 0 0 0 0 0 -6.53787 -1.44396 -1.47173 8.26804 0.942018 -15.3239 -7.44807e-008 6.05131e-008 1.89517e-007 2.11877 0.672187 2.25242 -4.70658 -0.142723 -19.1842 8.26584e-008 -2.06601e-008 1.90543e-007 
0.00015815 -3.37396e-005 -0.00240415 0.538988 -0.454077 -7.96688 -1.12645 -0.105698 -3.75323 0 0 0 0 0 0 0 0 0 0 0 0 0 0 0 0 0 0 0 0 0 -6.53265 -1.44625 -1.57024 8.28813 0.942936 -15.1924 -7.27894e-008 6.15311e-008 1.93705e-007 2.07817 0.656988 2.21758 -4.61067 -0.121208 -19.1907 0 0 0 
0.000158113 -3.37238e-005 -0.00240387 0.547643 -0.53652 -7.99006 -1.12724 0.0266649 -3.6703 1.60158e-008 1.63447e-008 1.56047e-007 0 0 0 0 0 0 0 0 0 0 0 0 0 0 0 0 0 0 -6.52995 -1.45411 -1.56304 8.3463 0.952834 -15.1405 0 0 0 2.07547 0.642915 2.28525 -4.5635 -0.110658 -19.178 0 0 0 
0.00015787 -3.351e-005 -0.00240292 0.548108 -0.394742 -8.04768 -1.20264 0.0228193 -3.55009 1.33997e-008 2.47335e-008 1.59611e-007 0 0 0 0 0 0 0 0 0 0 0 0 0 0 0 0 0 0 -6.52807 -1.43896 -1.46628 8.34295 0.951206 -15.0525 -6.70695e-008 6.35147e-008 2.03855e-007 2.05168 0.632448 2.44388 -4.55113 -0.11142 -19.2348 0 0 0 
0.000157628 -3.34324e-005 -0.0024027 0.568073 -0.223895 -8.02492 -1.31957 -0.0209885 -3.57436 0 0 0 0 0 0 0 0 0 0 0 0 0 0 0 0 0 0 0 0 0 -6.56135 -1.44042 -1.40207 8.33698 0.961158 -15.1617 -7.5003e-008 2.09189e-008 2.01846e-007 2.02522 0.640723 2.3544 -4.60579 -0.122047 -19.045 8.53139e-008 -3.44969e-008 2.03714e-007 
0.000155545 -3.30657e-005 -0.00240159 0.612776 0.434024 -7.89947 -1.7551 -0.272323 -3.5255 4.10938e-008 -3.93563e-009 1.69062e-007 0 0 0 0 0 0 0 0 0 0 0 0 0 0 0 0 0 0 -6.50196 -1.39392 -1.27571 8.10514 0.961468 -15.345 -7.41534e-008 1.46318e-008 2.07353e-007 2.06429 0.665009 1.65244 -4.7811 -0.123662 -17.8006 0 0 0 
0.000154353 -3.27177e-005 -0.00240093 0.772851 0.801651 -7.77975 -1.88704 -0.473983 -3.54884 0 0 0 0 0 0 0 0 0 0 0 0 0 0 0 0 0 0 0 0 0 -6.67219 -1.40404 -1.25177 8.12191 0.968517 -15.4597 0 0 0 1.89147 0.661188 1.18473 -4.75221 -0.119151 -17.013 9.61696e-008 -3.2776e-008 2.68876e-007 
0.000148452 -3.26615e-005 -0.00240088 1.22363 1.10753 -7.40594 -2.53745 -0.452194 -3.26578 0 0 0 0 0 0 0 0 0 0 0 0 0 0 0 0 0 0 0 0 0 -6.96177 -1.43648 -1.83848 8.24314 0.855031 -14.8351 0 0 0 1.82887 0.725584 0.133742 -4.9706 -0.220745 -15.7698 6.73745e-009 -6.84398e-009 3.0329e-007 
0.000141323 -3.26615e-005 -0.00240088 1.7693 1.88492 -7.01734 -2.28644 -0.578464 -2.49688 0 0 0 0 0 0 0 0 0 0 0 0 0 0 0 0 0 0 0 0 0 -7.23934 -1.42433 -2.17732 8.0815 0.842777 -14.7723 0 0 0 1.62375 0.796385 -0.88367 -5.24316 -0.223969 -14.7091 0 0 0 
0.000136139 -3.26615e-005 -0.00240088 2.00337 1.63327 -6.75779 -2.42608 -0.175831 -2.69296 9.56721e-009 -3.49097e-008 2.84676e-007 0 0 0 0 0 0 0 0 0 0 0 0 0 0 0 0 0 0 -7.40042 -1.56099 -2.89144 8.69081 0.838171 -13.9202 0 0 0 1.86936 0.852982 -1.56599 -5.4691 -0.269758 -14.0465 1.62813e-008 -9.6936e-008 3.42054e-007 
0.000119043 -3.29253e-005 -0.00240503 2.80811 1.01463 -5.80458 -2.04975 0.911597 -2.19342 -9.85296e-010 -9.56031e-009 3.72677e-007 0 0 0 0 0 0 0 0 0 0 0 0 0 0 0 0 0 0 -7.4733 -1.78625 -5.31491 9.36895 0.734977 -11.6029 0 0 0 2.83216 1.13079 -4.82965 -6.61208 -0.294799 -10.2907 0 0 0 
0.000115174 -3.29456e-005 -0.00240622 3.09874 1.1708 -5.50735 -1.49833 1.12216 -1.73456 -1.68369e-008 3.21261e-008 -1.70091e-008 0 0 0 0 0 0 0 0 0 0 0 0 0 0 0 0 0 0 -7.59257 -1.88506 -5.82386 9.3959 0.58982 -11.3386 0 0 0 3.09198 1.21039 -6.1246 -7.16731 -0.369238 -8.6184 -1.53268e-008 -5.8687e-009 7.40407e-007 
0.00010466 -3.29456e-005 -0.00240944 4.16374 1.17623 -4.87873 -2.1815 1.97032 -0.981434 0 0 0 0 0 0 0 0 0 0 0 0 -80.1703 0.971492 34.0904 1.86699e-006 -24.2825 -1.92007e-006 0 0 0 -8.27569 -2.0918 -7.19006 9.51513 0.428577 -10.5287 0 0 0 3.25913 1.46466 -8.07656 -8.24058 -0.400382 -6.8644 2.32026e-008 -8.40994e-009 4.94027e-007 
9.67416e-005 -3.29253e-005 -0.0024116 4.97774 1.45127 -4.29171 -2.60584 2.36537 -0.580387 0 0 0 81.3415 -0.554565 31.2919 -6.72239e-006 23.7409 1.53531e-007 0 0 0 -79.5525 3.24131 26.6556 6.96074e-006 -30.1731 -3.02553e-006 0 0 0 -9.20588 -2.35515 -7.97455 10.0359 0.409865 -10.369 -7.4025e-008 1.47826e-009 3.1419e-007 4.13979 2.21528 -10.3584 -10.7243 -0.30967 -4.02851 3.41118e-008 -3.76164e-008 5.54975e-007 
8.95816e-005 -3.29171e-005 -0.00241287 5.44079 1.65687 -3.71101 -2.62258 3.24704 -0.376935 0 0 0 80.3099 -1.51743 30.7809 5.96601e-006 26.0375 2.29583e-006 7.15587e-008 2.22652e-007 4.42503e-007 -77.8818 5.11021 24.0735 -1.0513e-005 -38.1942 1.60026e-006 0 0 0 -9.9053 -2.71605 -9.08054 10.7107 0.330501 -9.40955 -4.9638e-008 -6.13773e-009 3.36933e-007 8.34592 6.08532 -14.6728 -18.7557 0.371722 2.79179 0 0 0 
8.18711e-005 -3.10204e-005 -0.00241406 5.83826 3.0571 -3.22994 -2.69592 2.91321 0.11584 0 0 0 79.8716 -1.77553 27.6129 -5.27491e-006 26.8721 -6.20525e-006 3.02316e-008 2.23291e-007 2.66673e-007 -75.9273 7.92773 21.3212 8.23332e-006 -44.7912 -6.05684e-006 0 0 0 -10.2803 -2.81419 -9.29336 10.5396 0.21654 -9.6543 0 0 0 11.8664 13.8684 -20.0768 -26.7821 2.46566 13.1663 0 0 0 
7.32752e-005 -2.82233e-005 -0.00241531 5.91189 3.38583 -2.89776 -2.7058 3.18453 0.315141 -2.23071e-008 -4.8227e-008 3.89987e-008 79.0818 -2.66653 28.8192 -3.71076e-006 29.5223 -7.11849e-007 0 0 0 -73.8246 6.95939 22.8025 1.81153e-006 -46.0784 -4.06746e-006 9.09944e-007 -7.15421e-008 2.98846e-007 -9.41654 -2.56811 -9.62689 9.48382 0.144279 -9.80612 0 0 0 12.9904 26.523 -26.4531 -31.9737 6.05381 27.1641 0 0 0 
6.8567e-005 -2.6839e-005 -0.00241531 5.92835 3.63117 -2.76182 -2.70076 3.1641 0.483432 -1.9791e-008 -3.45379e-008 5.63325e-008 79.1081 -2.69301 28.3296 1.46226e-006 30.0762 -1.72585e-006 1.127e-007 3.57818e-007 3.9299e-007 -72.606 6.54599 21.0854 1.38957e-005 -50.2966 -8.08889e-006 7.88703e-007 6.92814e-008 9.00605e-007 -8.79227 -2.32693 -9.71626 8.49772 0.0623656 -9.88381 0 0 0 7.92886 42.6361 -37.206 -24.3436 9.35518 53.5135 0 0 0 
6.3691e-005 -2.51468e-005 -0.00241531 6.02375 4.02276 -2.57867 -2.62977 3.33322 0.610605 0 0 0 78.8111 -3.22314 27.2171 7.01002e-006 31.5214 6.91772e-006 0 0 0 -70.0561 3.87478 22.4681 -1.29126e-005 -50.8191 5.67199e-006 0 0 0 -8.34884 -2.30997 -9.83917 7.8075 -0.137024 -9.94603 -6.07957e-008 -2.48163e-009 3.26727e-007 -14.3899 59.1128 -67.1667 -6.56478 4.25909 81.2611 0 0 0 
4.63797e-005 -2.39722e-005 -0.0024148 5.05766 4.19368 -2.44082 -2.26155 2.79544 0.734929 0 0 0 79.8475 -3.21561 28.0944 2.98837e-006 32.2154 -7.49154e-007 0 0 0 -68.7068 -2.78091 24.5985 -4.856e-006 -44.9578 8.10964e-007 0 0 0 -3.98783 -1.4209 -10.1745 3.7791 -0.422405 -9.8802 0 0 0 -33.4882 60.0087 -98.7937 6.22034 -5.00331 99.4891 0 0 0 
4.48778e-005 -2.39722e-005 -0.0024148 5.16163 4.31817 -2.35277 -2.43614 2.30857 0.606582 0 0 0 79.6648 -3.11016 29.5619 1.34276e-005 32.2449 2.65939e-006 0 0 0 -69.6909 -6.67868 30.0202 -4.72989e-006 -34.7175 -1.86785e-007 0 0 0 -3.24604 -1.11812 -10.15 2.27328 -0.540439 -10.0644 -1.41809e-007 -6.97133e-008 3.23448e-007 -33.9444 59.3242 -101.709 7.74547 -6.30008 102.325 0 0 0 
4.19256e-005 -2.39722e-005 -0.00241466 5.37826 4.72954 -2.1504 -2.89026 0.0994868 0.690781 -5.95558e-008 -1.49118e-007 1.0537e-007 79.8986 -2.54053 32.688 -1.17172e-005 32.4521 -6.6791e-006 0 0 0 -76.7915 -17.5959 29.9055 -6.47514 -11.3902 1.4727 0 0 0 -1.50967 -0.455406 -10.2561 -1.45199 -0.945733 -10.8209 -2.5212e-008 -7.19388e-008 2.78646e-007 -41.8459 55.235 -115.132 11.0101 -11.292 113.361 0 0 0 
4.00244e-005 -2.50583e-005 -0.00241466 5.5243 5.04868 -1.6357 -3.15556 -2.39994 0.241308 0 0 0 80.109 -1.86517 36.3482 -8.44853e-006 31.7842 -5.62451e-006 0 0 0 -77.5796 -15.9594 28.1275 -8.09462 -12.3979 2.36569 0 0 0 -1.37641 -0.208739 -11.05 -1.97353 -0.758841 -10.4463 0 0 0 -42.2683 55.3912 -124.829 12.8903 -11.6863 119.311 0 0 0 
3.97598e-005 -2.51731e-005 -0.00241428 5.71843 5.03032 -1.21555 -3.20933 -3.22186 0.18026 -5.79873e-008 -5.05008e-009 2.70029e-008 80.343 -1.28694 37.5294 -4.98059e-006 31.2373 -3.81111e-006 0 0 0 -79.8015 -16.1856 27.9411 -5.63027 -8.00371 1.464 8.54548e-007 3.00514e-007 -1.82984e-007 -1.42531 -0.132029 -11.4647 -2.12166 -0.717995 -10.5136 0 0 0 -51.4802 50.5451 -133.224 12.6458 -11.694 118.207 0 0 0 
3.97598e-005 -2.51731e-005 -0.00241414 5.79452 5.04129 -1.05712 -3.05173 -3.24898 0.340721 0 0 0 80.0959 -1.12033 38.4185 -1.48459e-006 31.1461 -5.81636e-006 0 0 0 -80.592 -15.9953 28.0202 -6.13776 -9.17843 1.88243 0 0 0 -2.5383 -0.499079 -11.1157 -0.239974 -0.637948 -11.6878 0 0 0 -54.1984 48.2551 -136.351 12.4901 -12.6089 120.702 0 0 0 
3.97111e-005 -2.51731e-005 -0.00241383 5.91538 5.03461 -0.941617 -2.8427 -3.04837 0.414436 -2.69489e-008 -9.92844e-008 1.88612e-009 79.5385 -1.25036 38.7971 6.01599e-006 31.9674 3.79653e-006 0 0 0 -80.9747 -16.148 28.1902 -7.08727 -7.73522 1.72864 6.5531e-007 3.36217e-007 -2.00184e-007 -2.87063 -0.58019 -11.1976 0.110059 -0.610483 -11.6889 0 0 0 -54.1119 48.1643 -137.084 12.6071 -12.5838 121.185 0 0 0 
3.95737e-005 -2.45538e-005 -0.0024132 6.38659 5.09245 -0.788092 -2.9225 -2.63334 -0.183923 -3.36119e-009 -7.26549e-008 2.69526e-008 78.7531 -1.87197 40.0038 -9.57517e-006 32.2897 -6.20175e-006 0 0 0 -81.2241 -15.1323 28.6068 -6.63159 -7.35192 1.58986 0 0 0 -3.38431 -0.678868 -11.2785 0.0849695 -0.729777 -11.7838 0 0 0 -54.6046 48.5891 -137.039 12.6049 -12.4646 120.59 0 0 0 
3.95089e-005 -2.39496e-005 -0.00241138 7.00824 5.37353 -1.03521 -2.73338 -2.80261 0.0142939 0 0 0 78.141 -1.68367 38.2939 4.27821e-006 32.8414 1.29198e-006 2.66482e-007 8.29377e-007 5.702e-007 -81.918 -14.4227 28.6022 9.05186 0.62586 0.0357764 0 0 0 -4.512 -0.960982 -10.4536 0.630117 -0.987703 -12.271 0 0 0 -55.5775 49.4042 -137.153 12.4963 -12.4995 120.112 0 0 0 
3.90212e-005 -2.39496e-005 -0.00240644 7.42953 5.80861 -1.77087 -2.23136 -2.82818 0.717949 0 0 0 77.898 -1.03729 37.6746 -9.85456e-006 32.5245 -6.33549e-006 2.66957e-007 8.93994e-007 5.44988e-007 -82.9597 -14.0087 28.9441 9.40617 0.68907 0.0414441 0 0 0 -5.43531 -0.925992 -8.44897 1.00261 -1.16846 -13.4621 0 0 0 -57.1884 51.0812 -137.667 12.4827 -12.456 119.788 0 0 0 
3.85937e-005 -2.39496e-005 -0.00240482 7.49068 6.28066 -2.01488 -2.01264 -3.10083 0.799402 0 0 0 77.9778 -0.739137 37.523 -6.04695e-006 32.1382 -4.06942e-006 0 0 0 -83.1614 -13.8458 29.1145 9.38143 0.558716 0.0345816 0 0 0 -5.5195 -0.866141 -7.83231 0.851926 -1.27004 -13.7277 0 0 0 -60.9335 49.0713 -139.952 12.3009 -11.3526 115.866 0 0 0 
